# xmcd CD database file
#
# Track frame offsets:
#	150
#	15208
#	36259
#
# Disc length: 729 seconds
#
# Revision: 0
# Processed by: cddbd v1.5.1PL0 Copyright (c) Steve Scherf et al.
# Submitted via: CDex 1.51
#
DISCID=1502d703
DTITLE=矢井田瞳 - B'coz I Love You
DYEAR=1900
DGENRE=J ポップ
TTITLE0=B'coz I Love You
TTITLE1=Stay
TTITLE2=ねえ
EXTD=
EXTT0=
EXTT1=
EXTT2=
PLAYORDER=
